# xmcd
#
# Track frame offsets:
#	150
#	14900
#	36266
#	58455
#	71572
#	86666
#	103901
#	119951
#	137227
#	150168
#	167331
#	183302
#	207408
#
# Disc length: 2971 seconds
#
# Revision: 1
# Processed by: cddbd v1.5.2PL0 Copyright (c) Steve Scherf et al.
# Submitted via: audiograbber 1.83.01
#
DISCID=c30b990d
DTITLE=Dianna Corcoran - Little Bit Crazy
DYEAR=2003
DGENRE=Country
TTITLE0=Little Bit Crazy
TTITLE1=Let It Rain
TTITLE2=Why Do I Cry
TTITLE3=September's Sweet Child
TTITLE4=I'll Fly Away
TTITLE5=Fire And Ice
TTITLE6=Keep Coming Back
TTITLE7=Country Heart
TTITLE8=Odd One Out
TTITLE9=The Mountain
TTITLE10=Here She Stands
TTITLE11=The River Wild And Deeper
TTITLE12=Mocking Bird Yodel
EXTD=
EXTT0=
EXTT1=
EXTT2=
EXTT3=
EXTT4=
EXTT5=
EXTT6=
EXTT7=
EXTT8=
EXTT9=
EXTT10=
EXTT11=
EXTT12=
PLAYORDER=
